<svg width="20" height="18" viewBox="0 0 20 18" fill="none" xmlns="http://www.w3.org/2000/svg">
<path fill-rule="evenodd" clip-rule="evenodd" d="M0.74101 4.75445C0.760217 4.60014 0.790531 4.39391 0.855279 4.20441C0.894998 4.01166 0.982435 3.85762 1.0593 3.75054C1.16492 3.60339 1.29427 3.48328 1.41292 3.3882C1.65052 3.1978 1.95647 3.02047 2.27712 2.8584C2.92678 2.53003 3.78731 2.19009 4.67249 1.87363C6.45142 1.23766 8.44261 0.657054 9.31753 0.408989C9.77317 0.279801 10.2467 0.285915 10.698 0.425018C11.5697 0.693703 13.5568 1.31879 15.3311 1.96898C16.2146 2.29277 17.0679 2.63088 17.7088 2.9404C18.025 3.09308 18.322 3.25415 18.5513 3.41829C18.6642 3.49916 18.7924 3.60289 18.9003 3.73046C18.9721 3.81527 19.0879 3.97237 19.14 4.1893C19.2084 4.38288 19.2398 4.59602 19.2596 4.75442C19.2893 4.99365 19.3097 5.28257 19.3238 5.59868C19.352 6.2331 19.3568 7.02964 19.3485 7.86492C19.332 9.53836 19.2626 11.4123 19.2144 12.5525C19.173 13.5346 18.5565 14.3917 17.6509 14.754L10.9287 17.4428C10.3327 17.6812 9.66782 17.6812 9.07179 17.4428L2.34969 14.754C1.44399 14.3917 0.827586 13.5346 0.786119 12.5525C0.737975 11.4122 0.668629 9.53833 0.652085 7.8649C0.643828 7.02963 0.648584 6.2331 0.676782 5.59868C0.690832 5.28258 0.711233 4.99367 0.74101 4.75445ZM9.16689 15.6858V8.31207C9.13565 8.30099 9.10458 8.28927 9.07367 8.27691L2.34588 5.58579L2.3418 5.67269C2.3156 6.26235 2.31052 7.0239 2.31867 7.84842C2.33494 9.49459 2.40338 11.3472 2.4513 12.4822C2.46478 12.8014 2.66501 13.0851 2.96867 13.2065L9.16689 15.6858ZM10.8336 15.6858V8.3121C10.8648 8.30101 10.8959 8.28928 10.9269 8.27691L17.6547 5.58577L17.6588 5.6727C17.685 6.26237 17.6901 7.02391 17.6819 7.84844C17.6656 9.49461 17.5972 11.3472 17.5492 12.4822C17.5358 12.8014 17.3355 13.085 17.0319 13.2065L10.8336 15.6858ZM14.7576 3.53388C15.4179 3.77585 16.0331 4.01606 16.5385 4.2372L14.1806 5.18036L8.06031 2.5164C8.77113 2.29956 9.38162 2.12318 9.77216 2.01245C9.91689 1.97141 10.062 1.97303 10.2071 2.01774C11.072 2.28435 13.0255 2.89913 14.7576 3.53388ZM5.66472 3.29139L12.0044 6.05084L10.3079 6.72945C10.1092 6.80892 9.89133 6.80892 9.69266 6.72945L3.34891 4.19195C3.86778 3.95318 4.52233 3.69729 5.23356 3.44302C5.376 3.3921 5.51997 3.3415 5.66472 3.29139Z" fill="white"/>
</svg>
