<svg width="18" height="17" viewBox="0 0 18 17" fill="none" xmlns="http://www.w3.org/2000/svg">
<path d="M1.29688 15.7083H16.7135M3.38021 3.20833C3.38021 2.6558 3.5997 2.12589 3.9904 1.73519C4.3811 1.34449 4.91101 1.125 5.46354 1.125H12.5469C13.0994 1.125 13.6293 1.34449 14.02 1.73519C14.4107 2.12589 14.6302 2.6558 14.6302 3.20833V15.7083H3.38021V3.20833Z" stroke="white" stroke-width="1.5" stroke-linecap="round" stroke-linejoin="round"/>
<path d="M11.7188 9.66602C12.4091 9.66602 12.9688 9.10637 12.9688 8.41602C12.9688 7.72566 12.4091 7.16602 11.7188 7.16602C11.0284 7.16602 10.4688 7.72566 10.4688 8.41602C10.4688 9.10637 11.0284 9.66602 11.7188 9.66602Z" fill="white"/>
</svg>
