<svg width="300" height="300" viewBox="0 0 300 300" fill="none" xmlns="http://www.w3.org/2000/svg">
<path d="M60.55 200.85C66.55 199.3 72.4 197.975 77.925 197.025C83.55 195.95 88.35 195.35 92.425 195C97.7 194.65 101.9 195.25 104.775 197.025C107.775 198.825 109.675 201.225 110.875 204.45C111.125 205.3 111.225 206 111.125 206.6C111 207.2 110.175 207.55 108.85 207.55C106.225 207.55 102.85 207.8 99.025 208.4C95.075 209 91 209.6 86.675 210.55C82.35 211.4 78.175 212.225 73.975 213.175C69.9 214.125 66.3 214.975 63.2 215.8C60.675 216.525 58.775 216.75 57.45 216.525C56.125 216.275 54.925 215.325 53.725 213.65C52.775 212.2 51.7 210.65 50.725 208.975C49.775 207.3 48.925 205.85 48.325 204.55C47.6 202.75 47.25 200.95 47.25 199.15C47.25 197.35 47.85 195.075 48.925 192.325C50.6 188 52.875 182.75 55.75 176.625C58.625 170.525 61.85 163.925 65.325 156.85C68.925 149.9 72.625 142.7 76.575 135.525C80.525 128.325 84.25 121.375 87.95 114.925C91.675 108.325 95.15 102.475 98.375 97.2C101.6 91.925 104.25 87.85 106.275 84.975C108.2 82.35 109.875 82.45 111.3 85.45C112.5 88.075 113.1 91.8 112.85 96.475C112.6 101.15 110.325 107.375 106.025 115.05C103.275 120.075 100.025 125.825 96.45 132.175C92.85 138.525 89.025 145.475 85.075 152.775C81 160.2 76.925 168 72.725 176.025C68.525 184.175 64.45 192.45 60.625 200.825H60.5L60.55 200.85Z" fill="white"/>
<path d="M200.856 102.476C198.456 102.951 196.306 103.201 194.156 103.426C192.006 103.676 190.081 103.776 188.056 103.901C181.831 104.151 176.431 103.176 172.231 101.026C167.906 98.8757 165.281 95.8757 164.206 91.9257C163.481 89.7757 164.206 88.9257 166.481 89.1757C171.156 89.6507 176.556 89.5257 182.906 88.8257C189.256 88.1007 195.481 87.5007 201.831 86.6757C208.181 85.8257 214.056 85.0007 219.456 84.2757C224.856 83.5507 229.031 83.2007 232.031 83.3257C236.456 83.4507 240.531 84.2757 244.131 85.7257C247.731 87.1757 250.356 89.9257 251.931 94.0007C252.181 94.8507 252.181 95.5507 251.931 96.2757C251.681 97.0007 250.856 97.2257 249.406 97.1257C244.256 96.5257 238.506 96.6507 232.281 97.4757C226.056 98.2007 219.831 99.1507 213.706 100.351C213.831 102.876 213.456 105.851 212.506 109.451C211.556 113.051 209.631 117.351 206.881 122.501C200.656 134.001 193.331 147.051 184.956 161.926C176.681 176.776 168.306 193.801 160.156 213.076C159.431 215.001 158.356 215.226 156.806 213.676C155.256 212.226 154.056 209.951 153.206 206.851C152.356 203.726 152.606 199.651 154.056 194.626C155.381 190.301 157.531 184.451 160.756 177.126C163.981 169.826 167.706 161.801 172.131 153.151C176.456 144.526 181.106 135.776 186.156 126.801C191.181 117.826 196.106 109.676 201.006 102.251L200.881 102.501L200.856 102.476Z" fill="white"/>
<path d="M267.175 32.825V267.175H32.825V32.825H267.175ZM287.5 12.5H12.5V287.5H287.5V12.5Z" fill="#FBC10C"/>
<path d="M112.322 171.175C107.422 170.9 103.797 169.775 101.497 167.8C99.1719 165.825 97.6719 163.25 96.9719 160.025C96.6969 159.05 96.6969 158.275 96.9719 157.7C97.2469 157.15 97.9469 156.925 99.0719 157.075C101.872 157.225 104.922 157.225 108.222 157.075C111.522 156.925 114.772 156.725 117.997 156.45C121.222 156.175 124.372 155.925 127.472 155.725C130.547 155.525 133.297 155.4 135.672 155.4C140.997 155.4 144.797 156.45 147.022 158.55C149.272 160.65 150.747 163.25 151.447 166.325C151.872 168.425 151.097 169.4 149.122 169.275C145.347 169 141.722 168.95 138.297 169.175C134.847 169.375 131.622 169.625 128.622 169.9C125.597 170.175 122.722 170.5 119.997 170.85C117.272 171.2 114.697 171.3 112.322 171.175Z" fill="white"/>
</svg>
