<svg width="20" height="20" viewBox="0 0 20 20" fill="none" xmlns="http://www.w3.org/2000/svg">
<path fill-rule="evenodd" clip-rule="evenodd" d="M10.0026 0.833313C4.93999 0.833313 0.835938 4.93737 0.835938 9.99998C0.835938 15.0626 4.93999 19.1666 10.0026 19.1666C15.0652 19.1666 19.1693 15.0626 19.1693 9.99998C19.1693 4.93737 15.0652 0.833313 10.0026 0.833313ZM3.46871 9.41856L2.50324 9.9013C2.52578 8.15351 3.14616 6.54988 4.16927 5.28553V6.9666L3.46871 9.41856ZM5.83594 3.76294C7.02769 2.96521 8.46081 2.49998 10.0026 2.49998C14.0316 2.49998 17.3185 5.67686 17.4951 9.66227L14.6233 12.5341L14.2154 16.2059C13.0146 17.0226 11.5643 17.5 10.0026 17.5C6.43503 17.5 3.44924 15.0091 2.68956 11.6715L4.86983 10.5814L5.18363 9.4831C5.06381 10.1745 5.38684 10.9155 6.08072 11.2624L7.95288 12.1985L8.14837 15.1309C8.25913 16.7923 10.4693 17.2822 11.2717 15.8232L14.2999 10.3174C14.5323 9.89495 14.5703 9.39254 14.4041 8.93991L13.7042 7.03321C13.4264 6.27632 12.6466 5.82684 11.8524 5.96581L8.03506 6.63373C7.6974 6.69281 7.38618 6.85456 7.1438 7.09694L5.64756 8.59317C5.4828 8.75794 5.36102 8.94584 5.28027 9.14487L5.83594 7.20003V3.76294ZM16.2152 13.2992L17.1083 12.4061C16.8681 13.1156 16.5247 13.7775 16.0958 14.3739L16.2152 13.2992ZM8.69823 10.7078L6.82607 9.77169L8.32231 8.27545L12.1396 7.60753L12.8395 9.51423L9.81135 15.02L9.61585 12.0876C9.5765 11.4974 9.22729 10.9723 8.69823 10.7078Z" fill="white"/>
</svg>
