<svg width="18" height="17" viewBox="0 0 18 17" fill="none" xmlns="http://www.w3.org/2000/svg">
<path d="M9 16.6544L8.242 15.9694C6.61 14.4787 5.26 13.2027 4.192 12.1414C3.12467 11.0794 2.282 10.1427 1.664 9.33139C1.046 8.52006 0.614003 7.78672 0.368003 7.13139C0.122003 6.47606 -0.000663964 5.81572 2.7027e-06 5.15039C2.7027e-06 3.87839 0.432003 2.81039 1.296 1.94639C2.16 1.08239 3.228 0.650391 4.5 0.650391C5.38 0.650391 6.205 0.87539 6.975 1.32539C7.745 1.77539 8.42 2.43006 9 3.28939C9.58 2.43006 10.255 1.77539 11.025 1.32539C11.795 0.87539 12.62 0.650391 13.5 0.650391C14.772 0.650391 15.84 1.08239 16.704 1.94639C17.568 2.81039 18 3.87839 18 5.15039C18 5.81439 17.8773 6.47439 17.632 7.13039C17.386 7.78772 16.954 8.52172 16.336 9.33239C15.718 10.1431 14.8783 11.0794 13.817 12.1414C12.7557 13.2027 11.4023 14.4787 9.757 15.9694L9 16.6544ZM9 15.3004C10.6 13.8537 11.9167 12.6151 12.95 11.5844C13.9833 10.5537 14.8 9.65872 15.4 8.89939C16 8.14006 16.4167 7.46839 16.65 6.88439C16.8833 6.29906 17 5.72106 17 5.15039C17 4.15039 16.6667 3.31706 16 2.65039C15.3333 1.98372 14.5 1.65039 13.5 1.65039C12.704 1.65039 11.9693 1.87772 11.296 2.33239C10.6227 2.78706 10.0207 3.47139 9.49 4.38539H8.512C7.96734 3.45872 7.36167 2.77106 6.695 2.32239C6.02834 1.87439 5.297 1.65039 4.501 1.65039C3.51434 1.65039 2.68434 1.98372 2.011 2.65039C1.33767 3.31706 1.00067 4.15039 1 5.15039C1 5.72106 1.11667 6.29906 1.35 6.88439C1.58334 7.46972 2 8.14139 2.6 8.89939C3.2 9.65739 4.01667 10.5491 5.05 11.5744C6.08334 12.5997 7.4 13.8417 9 15.3004Z" fill="black"/>
</svg>
