<svg width="200" height="46" viewBox="0 0 200 46" fill="none" xmlns="http://www.w3.org/2000/svg">
<path d="M23.8606 20.5207C24.8606 20.2607 25.8406 20.0407 26.7606 19.8807C27.7006 19.7007 28.5006 19.6007 29.1806 19.5407C30.0606 19.4807 30.7606 19.5807 31.2406 19.8807C31.7406 20.1807 32.0606 20.5807 32.2606 21.1207C32.3006 21.2607 32.3206 21.3807 32.3006 21.4807C32.2806 21.5807 32.1406 21.6407 31.9206 21.6407C31.4806 21.6407 30.9206 21.6807 30.2806 21.7807C29.6206 21.8807 28.9406 21.9807 28.2206 22.1407C27.5006 22.2807 26.8006 22.4207 26.1006 22.5807C25.4206 22.7407 24.8206 22.8807 24.3006 23.0207C23.8806 23.1407 23.5606 23.1807 23.3406 23.1407C23.1206 23.1007 22.9206 22.9407 22.7206 22.6607C22.5606 22.4207 22.3806 22.1607 22.2206 21.8807C22.0606 21.6007 21.9206 21.3607 21.8206 21.1407C21.7006 20.8407 21.6406 20.5407 21.6406 20.2407C21.6406 19.9407 21.7406 19.5607 21.9206 19.1007C22.2006 18.3807 22.5806 17.5007 23.0606 16.4807C23.5406 15.4607 24.0806 14.3607 24.6606 13.1807C25.2606 12.0207 25.8806 10.8207 26.5406 9.62068C27.2006 8.42068 27.8206 7.26068 28.4406 6.18069C29.0606 5.08069 29.6406 4.10069 30.1806 3.22069C30.7206 2.34069 31.1606 1.66069 31.5006 1.18069C31.8206 0.740685 32.1006 0.760685 32.3406 1.26069C32.5406 1.70069 32.6406 2.32069 32.6006 3.10069C32.5606 3.88069 32.1806 4.92069 31.4606 6.20069C31.0006 7.04069 30.4606 8.00069 29.8606 9.06069C29.2606 10.1207 28.6206 11.2807 27.9606 12.5007C27.2806 13.7407 26.6006 15.0407 25.9006 16.3807C25.2006 17.7407 24.5206 19.1207 23.8806 20.5207H23.8606Z" fill="#030405"/>
<path d="M37.5162 16.4607C36.9562 18.0807 36.8362 19.3807 37.1762 20.4007C37.5162 21.4207 38.1562 21.9407 39.0762 22.0007C39.7962 22.0407 40.4962 21.9207 41.1762 21.6207C41.8562 21.3207 42.4962 20.9207 43.0762 20.4207C43.6762 19.9407 44.2162 19.3807 44.7162 18.8007C45.2162 18.2007 45.6562 17.6207 46.0362 17.0407C46.1362 16.9007 46.2362 16.8207 46.3562 16.8207C46.4762 16.8207 46.5562 16.9007 46.6362 17.0607C46.7162 17.2007 46.7162 17.4807 46.6362 17.9007C46.5562 18.3207 46.3762 18.7607 46.0362 19.2207C45.2962 20.3007 44.2962 21.2007 43.0562 21.9207C41.8162 22.6407 40.5162 23.0207 39.1762 23.0407C38.0562 23.0607 37.1362 22.8207 36.3962 22.3007C35.6562 21.7807 35.1362 21.1207 34.7962 20.3007C34.4762 19.4807 34.3562 18.5407 34.4562 17.4607C34.5562 16.3807 34.8962 15.2807 35.4562 14.1607C36.0162 13.0407 36.6362 12.0807 37.3362 11.2807C38.0362 10.4807 38.7362 9.8607 39.4362 9.4207C40.1362 8.9807 40.7962 8.7007 41.4362 8.6007C42.0762 8.5007 42.5962 8.5807 43.0362 8.8207C43.4762 9.0807 43.8562 9.3407 44.1962 9.6207C44.5162 9.9007 44.8162 10.2407 45.0962 10.6407C45.2562 10.8607 45.3562 11.1407 45.3962 11.4807C45.4362 11.8407 45.3962 12.2207 45.3362 12.6607C45.2562 13.1007 45.0962 13.5407 44.8762 14.0207C44.6562 14.5007 44.3562 14.9607 43.9762 15.4007C43.5562 15.9407 43.0962 16.3807 42.5962 16.7207C42.0962 17.0807 41.5562 17.3007 40.9962 17.4407C40.4362 17.5607 39.8562 17.5607 39.2562 17.3807C38.6562 17.2207 38.0562 16.9007 37.4562 16.4007L37.5162 16.4607ZM37.8362 15.7207C38.2562 16.0007 38.6562 16.1207 39.0562 16.1007C39.4562 16.0807 39.8362 15.9607 40.1762 15.7407C40.5362 15.5407 40.8562 15.2607 41.1562 14.9407C41.4562 14.6207 41.7362 14.2807 41.9962 13.9607C42.2762 13.5807 42.5362 13.2007 42.7562 12.8207C42.9762 12.4407 43.1562 12.0607 43.2962 11.7207C43.4362 11.3607 43.5162 11.0607 43.5362 10.8207C43.5562 10.5607 43.5162 10.3807 43.3962 10.3007C43.2162 10.1607 42.8962 10.1807 42.4962 10.3407C42.0762 10.5007 41.6162 10.8007 41.0962 11.2607C40.5762 11.7007 40.0562 12.2607 39.5362 12.9007C39.0162 13.5607 38.5362 14.3007 38.1162 15.1407C38.0762 15.2607 38.0162 15.3607 37.9762 15.4607C37.9362 15.5607 37.8762 15.6407 37.8362 15.7407V15.7207Z" fill="#030405"/>
<path d="M58.8813 14.5599C58.6413 14.8199 56.9213 15.3599 56.5213 15.3999C56.3413 16.1399 56.0613 16.9199 55.7213 17.6999C55.3613 18.4799 54.9413 19.2199 54.4613 19.8799C53.9813 20.5599 53.4413 21.1599 52.8613 21.6799C52.2813 22.1999 51.6613 22.5799 51.0013 22.7799C50.3813 22.9799 49.6613 23.0199 48.8413 22.8399C48.0413 22.6799 47.2813 22.1399 46.5813 21.2399C46.1813 20.7199 45.9213 20.1599 45.8013 19.5399C45.6813 18.9199 45.6413 18.2799 45.7213 17.5999C45.8013 16.9199 45.9413 16.2199 46.2013 15.4999C46.4413 14.7799 46.7613 14.0599 47.1613 13.3599C47.8413 12.1599 48.6813 11.1399 49.6613 10.2599C50.6613 9.3799 51.6813 8.8999 52.7213 8.7999C53.2613 8.7799 53.7013 8.8599 54.0613 9.0199C54.4213 9.1799 54.7613 9.5199 55.1013 9.9799C55.3013 10.2599 55.5213 10.4999 55.7213 10.6999C55.9213 10.8999 56.1213 11.1199 56.3013 11.3799C56.4813 11.6399 56.6013 11.9599 56.6813 12.3199C56.7613 12.6999 56.7813 13.1999 56.7413 13.8199C56.7213 13.9599 56.7013 14.0999 56.7013 14.2199C56.7013 14.3399 56.7013 14.4799 56.6613 14.6199C56.7813 14.6199 57.6813 14.0999 57.7613 14.0599C59.6213 12.9399 59.8413 12.2599 59.9813 12.2599C60.1213 12.2599 60.1813 12.5399 60.2013 12.6199C60.2013 12.6999 58.9413 14.4399 58.8813 14.5399V14.5599ZM54.2213 14.9399C54.0013 14.8399 53.7813 14.6999 53.5613 14.5199C53.1813 14.2399 52.8413 13.8199 52.5013 13.2599C52.1613 12.6999 51.9813 12.0999 51.9613 11.4399C51.5013 11.8399 51.0213 12.3199 50.5413 12.8799C50.0613 13.4399 49.6413 14.0599 49.2613 14.7399C48.8813 15.4199 48.5813 16.0999 48.3413 16.7999C48.1013 17.4999 47.9213 18.1599 47.8413 18.7799C47.7413 19.3999 47.7213 19.9399 47.7813 20.3999C47.8213 20.8599 47.9613 21.1999 48.2013 21.3799C48.4413 21.5799 48.7413 21.6599 49.1213 21.5999C49.5013 21.5399 49.9013 21.3599 50.3413 21.0599C50.7813 20.7599 51.2413 20.3399 51.7013 19.7799C52.1613 19.2399 52.6213 18.5399 53.0413 17.7399C53.3013 17.2399 53.5213 16.7599 53.7413 16.2799C53.9413 15.7999 54.1213 15.3599 54.2613 14.9399H54.2213ZM54.4613 13.9999C54.7413 12.8799 54.8413 12.0199 54.7413 11.4199C54.6413 10.8599 54.4813 10.5999 54.2213 10.6599C53.9613 10.7199 53.7813 10.9999 53.7013 11.5199C53.6013 11.9799 53.6413 12.4599 53.8013 12.9199C53.9613 13.3799 54.1813 13.7399 54.4613 13.9999Z" fill="#030405"/>
<path d="M62.7197 12.2205C63.1197 11.8005 63.5397 11.3805 64.0197 10.9405C64.4797 10.5005 64.9597 10.1205 65.4397 9.80055C65.9197 9.48055 66.3597 9.22055 66.7797 9.02055C67.1997 8.82055 67.5597 8.74055 67.8197 8.80055C68.0997 8.84055 68.3797 8.98055 68.6397 9.20055C68.8997 9.42055 69.1197 9.70055 69.2597 10.0405C69.4197 10.3805 69.4797 10.7605 69.4797 11.2005C69.4797 11.6405 69.3797 12.0605 69.1597 12.5205C68.9797 12.9205 68.7397 13.3605 68.4597 13.8405C68.1797 14.3405 67.8797 14.8405 67.5597 15.3805C67.2397 15.9205 66.9397 16.4605 66.6397 16.9805C66.3397 17.5205 66.0997 18.0005 65.8797 18.4605C65.6397 18.9805 65.4797 19.4605 65.3997 19.9005C65.3197 20.3405 65.2997 20.7205 65.3397 21.0605C65.3797 21.3805 65.4997 21.6405 65.6797 21.8205C65.8597 22.0005 66.0997 22.0805 66.4397 22.0605C66.7997 22.0405 67.1597 21.9005 67.5597 21.6205C67.9597 21.3605 68.3397 21.0005 68.7397 20.5405C69.1197 20.0805 69.4997 19.5805 69.8797 19.0005C70.2597 18.4205 70.5997 17.8405 70.9197 17.2405C71.0997 16.8805 71.2997 16.8805 71.5197 17.2005C71.6397 17.3805 71.6797 17.6805 71.6397 18.0605C71.5997 18.4405 71.4597 18.9005 71.1997 19.4005C70.9597 19.8805 70.6597 20.3605 70.2797 20.8205C69.8997 21.2805 69.4797 21.6605 69.0197 22.0005C68.5597 22.3405 68.0797 22.6005 67.5597 22.8005C67.0397 23.0005 66.5397 23.1005 66.0197 23.1005C64.5197 23.1005 63.5797 22.6205 63.1797 21.6405C62.7797 20.6805 62.8397 19.4205 63.3597 17.9205C63.6397 17.0605 64.0197 16.2005 64.4997 15.3405C64.9797 14.4805 65.4197 13.7205 65.8397 13.0205C66.2597 12.3205 66.5997 11.7405 66.8397 11.2805C67.0797 10.8205 67.1197 10.5605 66.9597 10.5005C66.8597 10.4805 66.6797 10.5005 66.3997 10.6205C66.1197 10.7205 65.7797 10.9205 65.3597 11.1805C64.9397 11.4405 64.4797 11.8005 63.9597 12.2205C63.4397 12.6605 62.9197 13.1805 62.3397 13.7805C61.8197 14.3405 61.3397 14.9605 60.8797 15.6605C60.4197 16.3405 59.9797 17.0805 59.5597 17.8405C59.1397 18.6005 58.7397 19.4005 58.3597 20.2205C57.9797 21.0405 57.5997 21.8405 57.2197 22.6405C57.0597 23.0005 56.8397 23.0405 56.5597 22.7805C56.1997 22.4405 55.9997 21.9805 55.9197 21.4005C55.8397 20.8205 55.9197 20.0805 56.2197 19.2005C56.3797 18.6405 56.6597 17.9405 57.0797 17.1005C57.4797 16.2605 57.9397 15.3605 58.4597 14.4205C58.9797 13.4805 59.5197 12.5205 60.0997 11.5405C60.6797 10.5805 61.2597 9.68055 61.8197 8.86055C62.0797 8.46055 62.3197 8.46055 62.5597 8.86055C62.8197 9.30055 62.9397 9.82055 62.9397 10.3805C62.9397 10.9405 62.8397 11.5605 62.6597 12.1805L62.7197 12.2205Z" fill="#030405"/>
<path d="M81.8959 11.0995C82.1359 10.6795 82.3559 10.2795 82.5559 9.91953C82.7759 9.55953 82.9559 9.23953 83.1559 8.95953C83.4559 8.51953 83.7359 8.43953 83.9959 8.73953C84.2559 9.05953 84.4159 9.57953 84.4759 10.2595C84.5559 10.9395 84.3759 11.7395 83.9559 12.6195C83.7759 13.0195 83.5159 13.4595 83.2159 13.9595C82.9159 14.4595 82.5959 14.9795 82.2959 15.5395C81.9759 16.0795 81.6759 16.6195 81.3759 17.1595C81.0759 17.6995 80.8159 18.1995 80.5959 18.6595C80.3759 19.1395 80.2159 19.5995 80.0959 20.0195C79.9759 20.4395 79.9359 20.7995 79.9559 21.0995C79.9759 21.3995 80.0559 21.6395 80.1959 21.8195C80.3359 21.9995 80.5559 22.0795 80.8559 22.0395C81.2159 22.0195 81.5759 21.8595 81.9959 21.5795C82.3959 21.2995 82.8159 20.9395 83.2159 20.4795C83.6159 20.0195 84.0159 19.5195 84.4159 18.9395C84.7959 18.3595 85.1359 17.7795 85.4559 17.1795C85.5559 17.0195 85.6559 16.9195 85.7559 16.9195C85.8559 16.9195 85.9559 16.9795 86.0159 17.1395C86.0959 17.2995 86.1159 17.5795 86.0959 17.9795C86.0759 18.3795 85.9359 18.8195 85.7159 19.2995C85.4759 19.7995 85.1759 20.2595 84.8159 20.7195C84.4359 21.1795 84.0359 21.5795 83.5759 21.9395C83.1159 22.2995 82.6559 22.5795 82.1559 22.7995C81.6759 23.0195 81.1759 23.1195 80.6959 23.0995C79.7359 23.0595 79.0159 22.7595 78.5359 22.2395C78.0559 21.7195 77.8159 21.0395 77.8159 20.2195C77.2559 20.9395 76.5959 21.5795 75.8359 22.1195C75.0759 22.6595 74.2759 22.9395 73.4359 22.9395C72.5959 22.9395 71.9759 22.6795 71.4959 22.1795C71.0159 21.6795 70.7159 21.0195 70.6159 20.1795C70.5159 19.3595 70.6159 18.4195 70.8959 17.3795C71.1959 16.3395 71.6959 15.2995 72.4159 14.2395C73.8359 12.1795 75.1959 10.7195 76.4959 9.83953C77.7959 8.95953 78.8759 8.51953 79.7759 8.51953C80.6759 8.51953 81.0759 8.77953 81.4359 9.27953C81.7959 9.77953 81.9559 10.3795 81.9159 11.0395L81.8959 11.0995ZM78.8559 16.5195C79.9759 14.5795 80.6359 13.0995 80.8359 12.0395C81.0359 10.9995 80.8759 10.4395 80.3559 10.3995C80.0759 10.3795 79.7159 10.4995 79.2759 10.7595C78.8359 11.0195 78.3559 11.3795 77.8559 11.8395C77.3559 12.2995 76.8359 12.8795 76.2959 13.5395C75.7559 14.1995 75.2559 14.9195 74.7559 15.6995C74.2959 16.4395 73.9159 17.1795 73.6359 17.9195C73.3559 18.6595 73.1759 19.2995 73.0759 19.8795C72.9759 20.4595 72.9959 20.9195 73.1159 21.2795C73.2359 21.6395 73.4759 21.8195 73.8159 21.8195C74.1559 21.8195 74.5359 21.6995 74.9559 21.4395C75.3559 21.1795 75.7759 20.8195 76.2159 20.3595C76.6559 19.8995 77.0759 19.3395 77.5359 18.6795C77.9759 18.0195 78.4159 17.3195 78.8559 16.5395V16.5195Z" fill="#030405"/>
<path d="M90.5781 11.4197C91.6581 11.2797 92.8581 10.7397 94.1781 9.79969C94.5981 9.51969 94.9181 9.49969 95.1181 9.71969C95.2781 9.89969 95.4381 10.1397 95.6181 10.3997C95.7781 10.6597 95.9181 10.9597 95.9981 11.2797C96.0981 11.5997 96.1181 11.9197 96.0581 12.2397C96.0181 12.5597 95.8581 12.8597 95.5981 13.1597C94.7981 14.0397 94.0381 14.9997 93.2981 16.0397C92.5581 17.0797 92.0381 18.0597 91.7581 18.9597C91.4781 19.8597 91.4181 20.6197 91.5981 21.2397C91.7781 21.8397 92.1181 22.1597 92.6381 22.1797C92.9981 22.1997 93.3381 22.0997 93.6981 21.8397C94.0581 21.5997 94.4181 21.2597 94.7981 20.8397C95.1781 20.4197 95.5181 19.9197 95.8581 19.3597C96.1981 18.7797 96.4981 18.1797 96.7781 17.5597C96.9381 17.2397 97.0981 17.2197 97.2581 17.5197C97.3581 17.6997 97.3981 17.9997 97.3781 18.3997C97.3781 18.7997 97.2581 19.2197 97.0781 19.6997C96.8781 20.2197 96.5981 20.6797 96.2581 21.0997C95.9181 21.5197 95.5381 21.8797 95.1181 22.1997C94.6981 22.5197 94.2581 22.7597 93.7981 22.9197C93.3381 23.0797 92.8581 23.1597 92.3981 23.1397C91.7581 23.1197 91.2381 22.9597 90.7781 22.6797C90.3381 22.3997 89.9981 22.0197 89.7781 21.5597C89.5581 21.0997 89.4381 20.5597 89.4181 19.9597C89.4181 19.3597 89.4981 18.7397 89.7181 18.0797C89.8981 17.4997 90.1581 16.9197 90.4981 16.3197C90.8381 15.7397 91.1981 15.1597 91.5781 14.5997C91.9581 14.0397 92.3581 13.4997 92.7581 12.9997C93.1581 12.4997 93.5381 12.0397 93.8981 11.6597C93.1381 12.1797 92.3781 12.5197 91.6781 12.6997C90.9581 12.8797 90.3381 12.9797 89.7981 12.9797C89.4781 13.5797 89.0381 14.3397 88.4981 15.2197C87.9581 16.0997 87.4181 17.0397 86.8781 17.9997C86.3381 18.9597 85.8381 19.9397 85.3781 20.9197C84.9181 21.8997 84.6181 22.7797 84.4581 23.5797C84.4181 23.7397 84.3381 23.8597 84.2381 23.9197C84.1381 23.9797 84.0181 23.9197 83.8581 23.7597C83.3381 23.2197 83.0781 22.5797 83.0781 21.7997C83.0781 21.0197 83.3181 20.1997 83.7781 19.3197C83.9981 18.9397 84.2781 18.4797 84.6381 17.8997C84.9981 17.3197 85.3981 16.7197 85.8181 16.0997C86.2381 15.4597 86.6581 14.8597 87.0981 14.2397C87.5381 13.6397 87.9181 13.0997 88.2381 12.6397C87.7381 12.3197 87.5381 11.8397 87.5981 11.2397C87.6581 10.6397 87.8581 10.0397 88.1981 9.43969C88.5381 8.83969 88.9381 8.31969 89.3981 7.85969C89.8581 7.39969 90.2581 7.17969 90.5781 7.17969C90.8981 7.17969 91.0581 7.29969 91.1581 7.51969C91.2581 7.73969 91.2981 8.05969 91.2781 8.43969C91.2581 8.83969 91.1781 9.27969 91.0381 9.77969C90.8981 10.2797 90.7181 10.8197 90.5181 11.3797L90.5781 11.4197Z" fill="#030405"/>
<path d="M106.038 18.7002C105.798 19.2202 105.638 19.6802 105.518 20.1002C105.398 20.5202 105.358 20.8802 105.358 21.1802C105.358 21.4802 105.438 21.7202 105.578 21.8802C105.718 22.0402 105.938 22.1202 106.238 22.1002C106.598 22.0802 106.958 21.9202 107.378 21.6402C107.778 21.3602 108.198 21.0002 108.578 20.5602C108.978 20.1202 109.358 19.6002 109.758 19.0402C110.138 18.4602 110.478 17.8802 110.798 17.2802C110.898 17.1202 110.998 17.0402 111.098 17.0402C111.198 17.0402 111.298 17.1002 111.358 17.2402C111.418 17.4002 111.458 17.6802 111.438 18.1002C111.438 18.5002 111.298 18.9402 111.078 19.4202C110.838 19.9002 110.538 20.3802 110.178 20.8202C109.798 21.2602 109.398 21.6602 108.938 22.0002C108.478 22.3602 108.018 22.6202 107.518 22.8202C107.018 23.0202 106.538 23.1002 106.038 23.0802C105.078 23.0402 104.378 22.7602 103.898 22.2602C103.438 21.7602 103.198 21.1002 103.198 20.2802C102.638 20.9802 101.978 21.6002 101.218 22.1602C100.458 22.7002 99.6778 22.9802 98.8578 22.9802C98.0378 22.9802 97.3978 22.7202 96.9178 22.2202C96.4378 21.7202 96.1378 21.0602 96.0378 20.2202C95.9378 19.4002 96.0378 18.4602 96.3178 17.4402C96.6178 16.4202 97.1178 15.3802 97.8378 14.3202C98.5378 13.3202 99.2178 12.4602 99.8978 11.7202C100.578 11.0002 101.238 10.4202 101.858 9.96023C102.478 9.52023 103.078 9.18023 103.638 8.98024C104.198 8.78023 104.698 8.66023 105.138 8.66023C105.858 8.66023 106.398 8.90023 106.758 9.36023C107.118 9.82023 107.278 10.3802 107.238 11.0402C107.698 10.1202 108.218 9.18023 108.758 8.16023C109.298 7.16023 109.838 6.20023 110.358 5.28023C110.878 4.36023 111.378 3.50023 111.838 2.72023C112.298 1.94023 112.698 1.32023 113.038 0.880234C113.418 0.360234 113.698 0.360234 113.878 0.880234C113.998 1.16023 114.078 1.48023 114.118 1.82023C114.158 2.18023 114.138 2.56023 114.058 2.98023C113.978 3.40023 113.838 3.88023 113.638 4.40023C113.438 4.92023 113.158 5.52023 112.778 6.16023C112.358 6.90023 111.858 7.80023 111.258 8.86023C110.658 9.92023 110.058 11.0002 109.418 12.1402C108.778 13.2802 108.178 14.4202 107.558 15.5602C106.958 16.7002 106.418 17.7202 105.978 18.6602L106.038 18.7002ZM105.738 10.4602C105.458 10.4602 105.098 10.5802 104.678 10.8402C104.238 11.1002 103.778 11.4602 103.278 11.9202C102.778 12.3802 102.258 12.9402 101.718 13.5802C101.178 14.2202 100.678 14.9202 100.178 15.7002C99.7178 16.4402 99.3378 17.1802 99.0578 17.9002C98.7778 18.6202 98.5978 19.2802 98.5178 19.8402C98.4378 20.4202 98.4578 20.8802 98.5778 21.2402C98.6978 21.6002 98.9378 21.7802 99.2778 21.7802C99.9778 21.8002 100.778 21.3402 101.658 20.4002C102.538 19.4602 103.398 18.1802 104.218 16.5602C105.238 14.6002 105.878 13.1002 106.138 12.0402C106.398 11.0002 106.258 10.4602 105.758 10.4402L105.738 10.4602Z" fill="#030405"/>
<path d="M127.744 4.10027C127.344 4.18027 126.984 4.22027 126.624 4.26027C126.264 4.30027 125.944 4.32027 125.604 4.34027C124.564 4.38027 123.664 4.22027 122.964 3.86027C122.244 3.50027 121.804 3.00027 121.624 2.34027C121.504 1.98027 121.624 1.84027 122.004 1.88027C122.784 1.96027 123.684 1.94027 124.744 1.82027C125.804 1.70027 126.844 1.60027 127.904 1.46027C128.964 1.32027 129.944 1.18027 130.844 1.06027C131.744 0.940274 132.444 0.880274 132.944 0.900274C133.684 0.920274 134.364 1.06027 134.964 1.30027C135.564 1.54027 136.004 2.00027 136.264 2.68027C136.304 2.82027 136.304 2.94027 136.264 3.06027C136.224 3.18027 136.084 3.22027 135.844 3.20027C134.984 3.10027 134.024 3.12027 132.984 3.26027C131.944 3.38027 130.904 3.54027 129.884 3.74027C129.904 4.16027 129.844 4.66027 129.684 5.26027C129.524 5.86027 129.204 6.58028 128.744 7.44027C127.704 9.36028 126.484 11.5403 125.084 14.0203C123.704 16.5003 122.304 19.3403 120.944 22.5603C120.824 22.8803 120.644 22.9203 120.384 22.6603C120.124 22.4203 119.924 22.0403 119.784 21.5203C119.644 21.0003 119.684 20.3203 119.924 19.4803C120.144 18.7603 120.504 17.7803 121.044 16.5603C121.584 15.3403 122.204 14.0003 122.944 12.5603C123.664 11.1203 124.444 9.66027 125.284 8.16027C126.124 6.66027 126.944 5.30027 127.764 4.06027L127.744 4.10027Z" fill="#030405"/>
<path d="M133.701 19.6403C133.401 20.0603 133.061 20.4803 132.661 20.8803C132.281 21.2803 131.861 21.6603 131.441 21.9603C131.001 22.2803 130.561 22.5203 130.101 22.7203C129.641 22.9003 129.161 22.9803 128.661 22.9203C128.041 22.8803 127.561 22.7003 127.221 22.3803C126.901 22.0603 126.681 21.6603 126.561 21.1803C126.441 20.7003 126.421 20.1803 126.501 19.5803C126.561 19.0003 126.701 18.4203 126.881 17.8203C127.281 16.6603 127.901 15.2803 128.741 13.7003C129.581 12.1203 130.581 10.5203 131.721 8.90032C131.861 8.72032 132.021 8.62032 132.181 8.62032C132.341 8.62032 132.501 8.70032 132.641 8.86032C133.441 10.0403 133.221 11.6203 131.981 13.5803C131.321 14.6003 130.801 15.5203 130.401 16.3003C130.001 17.0803 129.621 17.9003 129.241 18.7403C128.861 19.6003 128.701 20.3203 128.741 20.8803C128.781 21.4403 129.001 21.7403 129.401 21.7803C129.761 21.8003 130.121 21.6803 130.521 21.4203C130.921 21.1603 131.341 20.7803 131.781 20.2803C132.221 19.8003 132.681 19.2203 133.161 18.5403C133.641 17.8803 134.121 17.1603 134.581 16.3803C135.681 14.6003 136.541 13.1003 137.161 11.8603C137.781 10.6203 138.361 9.64032 138.921 8.88032C139.241 8.42032 139.541 8.34032 139.801 8.68032C140.061 9.00032 140.221 9.52032 140.301 10.2203C140.361 10.9203 140.201 11.7203 139.781 12.6003C139.601 13.0003 139.341 13.4403 139.041 13.9403C138.741 14.4403 138.421 14.9603 138.121 15.5003C137.801 16.0403 137.501 16.5803 137.221 17.1003C136.921 17.6403 136.681 18.1203 136.461 18.5803C136.001 19.5803 135.801 20.4203 135.881 21.0603C135.961 21.7203 136.321 22.0203 136.941 21.9803C137.321 21.9603 137.701 21.8203 138.101 21.5403C138.501 21.2803 138.901 20.9203 139.301 20.4603C139.701 20.0003 140.081 19.5003 140.481 18.9203C140.861 18.3403 141.241 17.7603 141.581 17.1603C141.681 17.0003 141.781 16.9003 141.921 16.9003C142.041 16.9003 142.141 16.9603 142.221 17.1203C142.281 17.2603 142.321 17.5403 142.301 17.9603C142.301 18.3803 142.161 18.8403 141.901 19.3203C141.641 19.8203 141.321 20.2803 140.941 20.7403C140.561 21.2003 140.121 21.6003 139.661 21.9203C139.201 22.2603 138.701 22.5403 138.201 22.7403C137.681 22.9403 137.181 23.0603 136.661 23.0603C135.521 23.0603 134.721 22.7403 134.241 22.1003C133.781 21.4603 133.601 20.6203 133.741 19.6003L133.701 19.6403ZM133.881 6.30032C134.041 5.92032 134.281 5.66032 134.581 5.48032C134.881 5.30032 135.181 5.26032 135.461 5.36032C135.761 5.46032 135.961 5.66032 136.041 5.98032C136.121 6.30032 136.081 6.64032 135.921 7.02032C135.761 7.38032 135.521 7.64032 135.201 7.84032C134.881 8.04032 134.601 8.10032 134.341 8.00032C134.061 7.90032 133.881 7.70032 133.781 7.36032C133.681 7.02032 133.721 6.68032 133.881 6.32032V6.30032ZM137.701 6.30032C137.881 5.92032 138.141 5.64032 138.441 5.42032C138.741 5.22032 139.021 5.16032 139.281 5.28032C139.561 5.40032 139.741 5.62032 139.841 5.94032C139.941 6.26032 139.901 6.60032 139.741 6.96032C139.581 7.34032 139.341 7.62032 139.021 7.80032C138.701 7.98032 138.421 8.04032 138.161 7.98032C137.861 7.88032 137.661 7.68032 137.561 7.34032C137.461 7.00032 137.521 6.66032 137.701 6.30032Z" fill="#030405"/>
<path d="M146.882 11.4197C147.962 11.2797 149.162 10.7397 150.482 9.79969C150.902 9.51969 151.222 9.49969 151.422 9.71969C151.582 9.89969 151.742 10.1397 151.922 10.3997C152.082 10.6597 152.222 10.9597 152.302 11.2797C152.402 11.5997 152.422 11.9197 152.362 12.2397C152.322 12.5597 152.162 12.8597 151.902 13.1597C151.102 14.0397 150.342 14.9997 149.602 16.0397C148.862 17.0797 148.342 18.0597 148.062 18.9597C147.782 19.8597 147.722 20.6197 147.902 21.2397C148.082 21.8397 148.422 22.1597 148.942 22.1797C149.302 22.1997 149.642 22.0997 150.002 21.8397C150.362 21.5997 150.722 21.2597 151.102 20.8397C151.482 20.4197 151.822 19.9197 152.162 19.3597C152.502 18.7797 152.802 18.1797 153.082 17.5597C153.242 17.2397 153.402 17.2197 153.562 17.5197C153.662 17.6997 153.702 17.9997 153.682 18.3997C153.682 18.7997 153.562 19.2197 153.382 19.6997C153.182 20.2197 152.902 20.6797 152.562 21.0997C152.222 21.5197 151.842 21.8797 151.422 22.1997C151.002 22.5197 150.562 22.7597 150.102 22.9197C149.642 23.0797 149.162 23.1597 148.702 23.1397C148.062 23.1197 147.542 22.9597 147.082 22.6797C146.642 22.3997 146.302 22.0197 146.082 21.5597C145.862 21.0997 145.742 20.5597 145.722 19.9597C145.722 19.3597 145.802 18.7397 146.022 18.0797C146.202 17.4997 146.462 16.9197 146.802 16.3197C147.142 15.7397 147.502 15.1597 147.882 14.5997C148.262 14.0397 148.662 13.4997 149.062 12.9997C149.462 12.4997 149.842 12.0397 150.202 11.6597C149.442 12.1797 148.682 12.5197 147.982 12.6997C147.262 12.8797 146.642 12.9797 146.102 12.9797C145.782 13.5797 145.342 14.3397 144.802 15.2197C144.262 16.0997 143.722 17.0397 143.182 17.9997C142.642 18.9597 142.142 19.9397 141.682 20.9197C141.222 21.8997 140.922 22.7797 140.762 23.5797C140.722 23.7397 140.642 23.8597 140.562 23.9197C140.462 23.9797 140.342 23.9197 140.182 23.7597C139.662 23.2197 139.422 22.5797 139.422 21.7997C139.422 21.0197 139.662 20.1997 140.122 19.3197C140.322 18.9397 140.622 18.4797 140.982 17.8997C141.342 17.3197 141.742 16.7197 142.162 16.0997C142.582 15.4597 143.002 14.8597 143.442 14.2397C143.882 13.6397 144.262 13.0997 144.582 12.6397C144.082 12.3197 143.882 11.8397 143.942 11.2397C144.002 10.6397 144.202 10.0397 144.542 9.43969C144.882 8.83969 145.282 8.31969 145.742 7.85969C146.202 7.39969 146.602 7.17969 146.922 7.17969C147.242 7.17969 147.402 7.29969 147.502 7.51969C147.602 7.73969 147.642 8.05969 147.622 8.43969C147.602 8.83969 147.522 9.27969 147.382 9.77969C147.242 10.2797 147.062 10.8197 146.862 11.3797L146.882 11.4197Z" fill="#030405"/>
<path d="M155.704 16.4607C155.144 18.0807 155.024 19.3807 155.364 20.4007C155.704 21.4207 156.344 21.9407 157.264 22.0007C157.984 22.0407 158.684 21.9207 159.364 21.6207C160.044 21.3207 160.684 20.9207 161.264 20.4207C161.864 19.9407 162.404 19.3807 162.904 18.8007C163.404 18.2007 163.844 17.6207 164.224 17.0407C164.324 16.9007 164.424 16.8207 164.544 16.8207C164.664 16.8207 164.744 16.9007 164.824 17.0607C164.884 17.2007 164.884 17.4807 164.824 17.9007C164.744 18.3207 164.564 18.7607 164.224 19.2207C163.484 20.3007 162.484 21.2007 161.244 21.9207C160.004 22.6407 158.704 23.0207 157.364 23.0407C156.244 23.0607 155.324 22.8207 154.584 22.3007C153.844 21.7807 153.324 21.1207 152.984 20.3007C152.664 19.4807 152.544 18.5407 152.644 17.4607C152.744 16.3807 153.084 15.2807 153.644 14.1607C154.204 13.0407 154.844 12.0807 155.544 11.2807C156.244 10.4807 156.944 9.8607 157.644 9.4207C158.344 8.9807 159.004 8.7007 159.644 8.6007C160.284 8.5007 160.804 8.5807 161.244 8.8207C161.684 9.0807 162.064 9.3407 162.404 9.6207C162.724 9.9007 163.024 10.2407 163.304 10.6407C163.464 10.8607 163.564 11.1407 163.604 11.4807C163.644 11.8207 163.604 12.2207 163.544 12.6607C163.464 13.1007 163.304 13.5407 163.084 14.0207C162.864 14.5007 162.564 14.9607 162.184 15.4007C161.764 15.9407 161.304 16.3807 160.804 16.7207C160.304 17.0807 159.764 17.3007 159.204 17.4407C158.644 17.5607 158.064 17.5607 157.464 17.3807C156.864 17.2207 156.264 16.9007 155.664 16.4007L155.704 16.4607ZM156.024 15.7207C156.444 16.0007 156.844 16.1207 157.244 16.1007C157.644 16.0807 158.024 15.9607 158.364 15.7407C158.724 15.5407 159.044 15.2607 159.344 14.9407C159.644 14.6207 159.924 14.2807 160.184 13.9607C160.464 13.5807 160.724 13.2007 160.944 12.8207C161.164 12.4407 161.344 12.0607 161.484 11.7207C161.624 11.3607 161.704 11.0607 161.724 10.8207C161.744 10.5607 161.704 10.3807 161.584 10.3007C161.404 10.1607 161.084 10.1807 160.684 10.3407C160.264 10.5007 159.804 10.8007 159.284 11.2607C158.764 11.7007 158.244 12.2607 157.724 12.9007C157.204 13.5607 156.724 14.3007 156.304 15.1407C156.264 15.2607 156.204 15.3607 156.164 15.4607C156.124 15.5607 156.064 15.6407 156.024 15.7407V15.7207Z" fill="#030405"/>
<path d="M169.379 12.2205C169.779 11.8005 170.199 11.3805 170.679 10.9405C171.139 10.5005 171.618 10.1205 172.098 9.80055C172.578 9.48055 173.018 9.22055 173.438 9.02055C173.858 8.82055 174.219 8.74055 174.479 8.80055C174.759 8.84055 175.038 8.98055 175.298 9.20055C175.558 9.42055 175.778 9.70055 175.938 10.0405C176.098 10.3805 176.158 10.7605 176.158 11.2005C176.158 11.6405 176.058 12.0605 175.838 12.5205C175.658 12.9205 175.418 13.3605 175.138 13.8405C174.858 14.3405 174.558 14.8405 174.238 15.3805C173.918 15.9205 173.618 16.4605 173.338 16.9805C173.038 17.5205 172.799 18.0005 172.579 18.4605C172.339 18.9805 172.178 19.4605 172.098 19.9005C172.018 20.3405 171.998 20.7205 172.038 21.0605C172.078 21.3805 172.199 21.6405 172.379 21.8205C172.559 22.0005 172.798 22.0805 173.138 22.0605C173.498 22.0405 173.858 21.9005 174.258 21.6205C174.658 21.3605 175.038 21.0005 175.438 20.5405C175.838 20.0805 176.199 19.5805 176.579 19.0005C176.959 18.4205 177.298 17.8405 177.618 17.2405C177.798 16.8805 177.998 16.8805 178.218 17.2005C178.338 17.3805 178.378 17.6805 178.338 18.0605C178.298 18.4405 178.158 18.9005 177.898 19.4005C177.658 19.8805 177.359 20.3605 176.979 20.8205C176.599 21.2805 176.178 21.6605 175.718 22.0005C175.258 22.3405 174.778 22.6005 174.258 22.8005C173.738 23.0005 173.238 23.1005 172.718 23.1005C171.218 23.1005 170.279 22.6205 169.879 21.6405C169.479 20.6805 169.538 19.4205 170.058 17.9205C170.338 17.0605 170.718 16.2005 171.198 15.3405C171.678 14.4805 172.118 13.7205 172.538 13.0205C172.958 12.3205 173.298 11.7405 173.538 11.2805C173.778 10.8205 173.818 10.5605 173.658 10.5005C173.558 10.4805 173.378 10.5005 173.098 10.6205C172.818 10.7205 172.478 10.9205 172.058 11.1805C171.638 11.4405 171.178 11.8005 170.658 12.2205C170.138 12.6605 169.618 13.1805 169.058 13.7805C168.538 14.3405 168.058 14.9605 167.598 15.6605C167.138 16.3405 166.699 17.0805 166.279 17.8405C165.859 18.6205 165.459 19.4005 165.079 20.2205C164.699 21.0405 164.318 21.8405 163.938 22.6405C163.778 23.0005 163.559 23.0405 163.279 22.7805C162.919 22.4405 162.718 21.9805 162.638 21.4005C162.558 20.8205 162.638 20.0805 162.938 19.2005C163.098 18.6405 163.378 17.9405 163.798 17.1005C164.198 16.2605 164.659 15.3605 165.179 14.4205C165.699 13.4805 166.238 12.5205 166.818 11.5405C167.398 10.5805 167.978 9.68055 168.538 8.86055C168.798 8.46055 169.039 8.46055 169.279 8.86055C169.539 9.30055 169.658 9.82055 169.658 10.3805C169.658 10.9405 169.559 11.5605 169.379 12.1805V12.2205Z" fill="#030405"/>
<path d="M23.8956 43.781V38.721H22.0156V38.041H26.5556V38.721H24.6556V43.781H23.8956Z" fill="#030405"/>
<path d="M32.9006 38.0604H33.6606V41.3604C33.6606 41.9404 33.6006 42.4004 33.4606 42.7404C33.3206 43.0804 33.1006 43.3604 32.7606 43.5604C32.4206 43.7604 31.9806 43.8804 31.4206 43.8804C30.8606 43.8804 30.4406 43.7804 30.1006 43.6004C29.7606 43.4204 29.5206 43.1404 29.3606 42.8004C29.2206 42.4404 29.1406 41.9804 29.1406 41.3604V38.0604H29.9006V41.3604C29.9006 41.8604 29.9406 42.2204 30.0406 42.4604C30.1406 42.7004 30.3006 42.8804 30.5206 43.0004C30.7406 43.1204 31.0206 43.2004 31.3406 43.2004C31.9006 43.2004 32.3006 43.0804 32.5406 42.8204C32.7806 42.5604 32.9006 42.0804 32.9006 41.3604V38.0604ZM30.3006 37.7004V36.9004H31.0406V37.7004H30.3006ZM31.7606 37.7004V36.9004H32.5006V37.7004H31.7606Z" fill="#030405"/>
<path d="M36.7969 43.7805V38.0605H39.3369C39.8569 38.0605 40.2369 38.1205 40.4969 38.2205C40.7569 38.3205 40.9769 38.5005 41.1369 38.7605C41.2969 39.0205 41.3769 39.3005 41.3769 39.6205C41.3769 39.9405 41.2369 40.3605 40.9769 40.6405C40.7169 40.9205 40.3169 41.1005 39.7569 41.1805C39.9569 41.2805 40.1169 41.3805 40.2169 41.4605C40.4369 41.6605 40.6569 41.9205 40.8369 42.2205L41.8369 43.7805H40.8769L40.1169 42.5805C39.8969 42.2405 39.7169 41.9805 39.5769 41.8005C39.4369 41.6205 39.2969 41.5005 39.1969 41.4205C39.0969 41.3405 38.9769 41.3005 38.8569 41.2605C38.7769 41.2605 38.6369 41.2405 38.4369 41.2405H37.5569V43.7805H36.7969ZM37.5569 40.5805H39.1769C39.5169 40.5805 39.7969 40.5405 39.9969 40.4805C40.1969 40.4205 40.3369 40.3005 40.4369 40.1405C40.5369 39.9805 40.5969 39.8205 40.5969 39.6205C40.5969 39.3405 40.4969 39.1205 40.2969 38.9605C40.0969 38.7805 39.7969 38.7005 39.3569 38.7005H37.5369V40.6005L37.5569 40.5805Z" fill="#030405"/>
<path d="M44.4375 43.7805V38.0605H48.5775V38.7405H45.1975V40.5005H48.3575V41.1805H45.1975V43.1205H48.7175V43.8005H44.4375V43.7805Z" fill="#030405"/>
<path d="M51.4766 43.7805V38.0605H52.2566L55.2566 42.5605V38.0605H55.9766V43.7805H55.1966L52.1966 39.2805V43.7805H51.4766Z" fill="#030405"/>
<path d="M63.4375 45.4805V37.9805H64.0575V45.4805H63.4375Z" fill="#030405"/>
<path d="M71.0156 43.7804V43.0804L73.9556 39.4204C74.1556 39.1604 74.3556 38.9404 74.5556 38.7404H71.3556V38.0604H75.4556V38.7404L72.2356 42.7204L71.8956 43.1204H75.5556V43.8004H71.0356L71.0156 43.7804Z" fill="#030405"/>
<path d="M77.8594 43.7804L80.0594 38.0604H80.8794L83.2194 43.7804H82.3594L81.6994 42.0404H79.2994L78.6794 43.7804H77.8794H77.8594ZM79.5194 41.4404H81.4594L80.8594 39.8604C80.6794 39.3804 80.5394 38.9804 80.4594 38.6804C80.3794 39.0404 80.2794 39.4204 80.1594 39.7804L79.5394 41.4604L79.5194 41.4404Z" fill="#030405"/>
<path d="M85.75 43.7805V38.0605H88.29C88.81 38.0605 89.19 38.1205 89.45 38.2205C89.71 38.3205 89.93 38.5005 90.09 38.7605C90.25 39.0205 90.33 39.3005 90.33 39.6205C90.33 39.9405 90.19 40.3605 89.93 40.6405C89.67 40.9205 89.27 41.1005 88.71 41.1805C88.91 41.2805 89.07 41.3805 89.17 41.4605C89.39 41.6605 89.61 41.9205 89.79 42.2205L90.79 43.7805H89.83L89.07 42.5805C88.85 42.2405 88.67 41.9805 88.53 41.8005C88.39 41.6205 88.25 41.5005 88.15 41.4205C88.05 41.3405 87.93 41.3005 87.81 41.2605C87.73 41.2605 87.59 41.2405 87.39 41.2405H86.51V43.7805H85.75ZM86.51 40.5805H88.13C88.47 40.5805 88.75 40.5405 88.95 40.4805C89.15 40.4205 89.29 40.3005 89.39 40.1405C89.49 39.9805 89.55 39.8205 89.55 39.6205C89.55 39.3405 89.45 39.1205 89.25 38.9605C89.05 38.7805 88.75 38.7005 88.31 38.7005H86.49V40.6005L86.51 40.5805Z" fill="#030405"/>
<path d="M95.9 41.5395V40.8595H98.32V42.9795C97.94 43.2795 97.56 43.4995 97.16 43.6395C96.76 43.7795 96.36 43.8595 95.94 43.8595C95.52 43.8595 94.86 43.7395 94.4 43.4995C93.94 43.2595 93.6 42.9195 93.36 42.4595C93.12 41.9995 93 41.4995 93 40.9395C93 40.3795 93.12 39.8595 93.34 39.3795C93.58 38.8995 93.9 38.5395 94.34 38.2995C94.78 38.0595 95.28 37.9395 95.86 37.9395C96.44 37.9395 96.64 37.9995 96.98 38.1395C97.32 38.2795 97.58 38.4595 97.76 38.6995C97.96 38.9395 98.1 39.2595 98.2 39.6395L97.52 39.8195C97.44 39.5195 97.32 39.2995 97.2 39.1395C97.08 38.9795 96.9 38.8395 96.66 38.7395C96.42 38.6395 96.16 38.5795 95.88 38.5795C95.6 38.5795 95.24 38.6395 94.98 38.7395C94.72 38.8395 94.52 38.9795 94.36 39.1595C94.2 39.3395 94.08 39.5195 94 39.7195C93.86 40.0795 93.78 40.4595 93.78 40.8795C93.78 41.2995 93.86 41.8195 94.04 42.1595C94.22 42.4995 94.48 42.7595 94.8 42.9195C95.12 43.0795 95.5 43.1595 95.88 43.1595C96.26 43.1595 96.52 43.0995 96.84 42.9795C97.16 42.8595 97.38 42.7195 97.56 42.5795V41.5195H95.88L95.9 41.5395Z" fill="#030405"/>
<path d="M101.336 43.7805V38.0605H105.476V38.7405H102.096V40.5005H105.256V41.1805H102.096V43.1205H105.616V43.8005H101.336V43.7805Z" fill="#030405"/>
<path d="M108.391 43.7805V38.0605H109.171L112.171 42.5605V38.0605H112.891V43.7805H112.111L109.111 39.2805V43.7805H108.391Z" fill="#030405"/>
<path d="M120.359 45.4803V37.9803H120.979V45.4803H120.359Z" fill="#030405"/>
<path d="M128.359 43.7804V38.0604H129.499L130.859 42.1204C130.979 42.5004 131.079 42.7804 131.139 42.9604C131.199 42.7604 131.299 42.4404 131.439 42.0404L132.819 38.0604H133.839V43.7804H133.099V38.9804L131.439 43.7804H130.759L129.099 38.9004V43.7804H128.359Z" fill="#030405"/>
<path d="M136.672 41.0009C136.672 40.0409 136.932 39.3009 137.432 38.7609C137.932 38.2209 138.592 37.9609 139.412 37.9609C140.232 37.9609 140.412 38.0809 140.832 38.3409C141.252 38.6009 141.572 38.9409 141.812 39.4009C142.052 39.8609 142.152 40.3609 142.152 40.9409C142.152 41.5209 142.032 42.0409 141.792 42.5009C141.552 42.9609 141.232 43.3009 140.792 43.5409C140.352 43.7809 139.892 43.9009 139.392 43.9009C138.892 43.9009 138.372 43.7609 137.952 43.5009C137.532 43.2409 137.212 42.8809 136.992 42.4409C136.772 42.0009 136.672 41.5209 136.672 41.0209V41.0009ZM137.472 41.0009C137.472 41.7009 137.652 42.2409 138.032 42.6409C138.412 43.0409 138.872 43.2409 139.432 43.2409C139.992 43.2409 140.472 43.0409 140.832 42.6409C141.192 42.2409 141.392 41.6609 141.392 40.9409C141.392 40.2209 141.312 40.0609 141.152 39.7209C140.992 39.3809 140.772 39.1009 140.452 38.9209C140.132 38.7409 139.812 38.6409 139.432 38.6409C138.892 38.6409 138.432 38.8209 138.052 39.2009C137.672 39.5809 137.472 40.1809 137.472 41.0409V41.0009Z" fill="#030405"/>
<path d="M145.016 43.7804V38.0604H145.796L148.796 42.5604V38.0604H149.516V43.7804H148.736L145.736 39.2804V43.7804H145.016Z" fill="#030405"/>
<path d="M154.052 43.781V38.721H152.172V38.041H156.712V38.721H154.812V43.781H154.052Z" fill="#030405"/>
<path d="M158.016 43.7804L160.216 38.0604H161.036L163.376 43.7804H162.516L161.856 42.0404H159.456L158.836 43.7804H158.036H158.016ZM159.676 41.4404H161.616L161.016 39.8604C160.836 39.3804 160.696 38.9804 160.616 38.6804C160.536 39.0404 160.436 39.4204 160.316 39.7804L159.696 41.4604L159.676 41.4404Z" fill="#030405"/>
<path d="M168.259 41.5395V40.8595H170.679V42.9795C170.299 43.2795 169.919 43.4995 169.519 43.6395C169.119 43.7795 168.719 43.8595 168.299 43.8595C167.879 43.8595 167.219 43.7395 166.759 43.4995C166.299 43.2595 165.959 42.9195 165.719 42.4595C165.479 41.9995 165.359 41.4995 165.359 40.9395C165.359 40.3795 165.479 39.8595 165.699 39.3795C165.919 38.8995 166.259 38.5395 166.699 38.2995C167.139 38.0595 167.639 37.9395 168.219 37.9395C168.799 37.9395 168.999 37.9995 169.339 38.1395C169.679 38.2795 169.939 38.4595 170.119 38.6995C170.299 38.9395 170.459 39.2595 170.559 39.6395L169.879 39.8195C169.799 39.5195 169.679 39.2995 169.559 39.1395C169.439 38.9795 169.259 38.8395 169.019 38.7395C168.779 38.6395 168.519 38.5795 168.239 38.5795C167.959 38.5795 167.599 38.6395 167.339 38.7395C167.079 38.8395 166.879 38.9795 166.719 39.1595C166.559 39.3395 166.439 39.5195 166.359 39.7195C166.219 40.0795 166.139 40.4595 166.139 40.8795C166.139 41.2995 166.219 41.8195 166.399 42.1595C166.579 42.4995 166.839 42.7595 167.159 42.9195C167.479 43.0795 167.859 43.1595 168.239 43.1595C168.619 43.1595 168.879 43.0995 169.199 42.9795C169.519 42.8595 169.739 42.7195 169.919 42.5795V41.5195H168.239L168.259 41.5395Z" fill="#030405"/>
<path d="M173.719 43.7805V38.0605H177.859V38.7405H174.479V40.5005H177.639V41.1805H174.479V43.1205H177.999V43.8005H173.719V43.7805Z" fill="#030405"/>
<path d="M199 29.6406H1V31.0406H199V29.6406Z" fill="#FECC17"/>
</svg>
