<svg width="20" height="16" viewBox="0 0 20 16" fill="none" xmlns="http://www.w3.org/2000/svg">
<path fill-rule="evenodd" clip-rule="evenodd" d="M5.83594 15.5C6.92445 15.5 7.85048 14.8043 8.19368 13.8333H13.4782C13.8214 14.8043 14.7474 15.5 15.8359 15.5C16.9245 15.5 17.8505 14.8043 18.1937 13.8333H18.3359C18.7962 13.8333 19.1693 13.4602 19.1693 13V10.1972C19.1693 9.73081 19.0714 9.2696 18.882 8.84341L18.0906 7.06287C17.5556 5.85911 16.3619 5.08333 15.0446 5.08333H13.3359V3.83333C13.3359 1.99238 11.8436 0.5 10.0026 0.5H4.16927C2.32832 0.5 0.835938 1.99238 0.835938 3.83333V12.1667C0.835938 13.0871 1.58213 13.8333 2.5026 13.8333H3.47819C3.82139 14.8043 4.74742 15.5 5.83594 15.5ZM2.5026 3.83333C2.5026 2.91286 3.2488 2.16667 4.16927 2.16667H10.0026C10.9231 2.16667 11.6693 2.91286 11.6693 3.83333V12.1667H8.19368C7.85048 11.1957 6.92445 10.5 5.83594 10.5C4.74742 10.5 3.82139 11.1957 3.47819 12.1667H2.5026V3.83333ZM17.359 9.5203C17.4537 9.7334 17.5026 9.96401 17.5026 10.1972V11.1366C17.0603 10.7407 16.4762 10.5 15.8359 10.5C14.7474 10.5 13.8214 11.1957 13.4782 12.1667H13.3359V6.75H15.0446C15.7032 6.75 16.3001 7.13789 16.5676 7.73977L17.359 9.5203ZM5.0026 13C5.0026 12.5398 5.3757 12.1667 5.83594 12.1667C6.29617 12.1667 6.66927 12.5398 6.66927 13C6.66927 13.4602 6.29617 13.8333 5.83594 13.8333C5.3757 13.8333 5.0026 13.4602 5.0026 13ZM15.0026 13C15.0026 12.5398 15.3757 12.1667 15.8359 12.1667C16.2962 12.1667 16.6693 12.5398 16.6693 13C16.6693 13.4602 16.2962 13.8333 15.8359 13.8333C15.3757 13.8333 15.0026 13.4602 15.0026 13Z" fill="white"/>
</svg>
