<svg width="28" height="33" viewBox="0 0 28 33" fill="none" xmlns="http://www.w3.org/2000/svg">
<path d="M12.6267 5.56925L12.6267 31.125C12.6267 31.4897 12.7716 31.8394 13.0295 32.0973C13.2873 32.3551 13.6371 32.5 14.0017 32.5C14.3664 32.5 14.7161 32.3551 14.974 32.0973C15.2319 31.8394 15.3767 31.4897 15.3767 31.125L15.3767 5.56925L25.4032 15.5985C25.6614 15.8567 26.0116 16.0017 26.3767 16.0017C26.7419 16.0017 27.092 15.8567 27.3502 15.5985C27.6084 15.3403 27.7535 14.9901 27.7535 14.625C27.7535 14.2599 27.6084 13.9097 27.3502 13.6515L14.9752 1.2765C14.8475 1.14845 14.6958 1.04686 14.5287 0.977544C14.3617 0.908225 14.1826 0.872545 14.0017 0.872545C13.8209 0.872545 13.6418 0.908225 13.4747 0.977544C13.3077 1.04686 13.156 1.14845 13.0282 1.2765L0.653237 13.6515C0.395048 13.9097 0.25 14.2599 0.25 14.625C0.25 14.9901 0.395048 15.3403 0.653237 15.5985C0.911425 15.8567 1.2616 16.0017 1.62674 16.0017C1.99187 16.0017 2.34205 15.8567 2.60024 15.5985L12.6267 5.56925Z" fill="white"/>
</svg>
