<svg width="17" height="17" viewBox="0 0 17 17" fill="none" xmlns="http://www.w3.org/2000/svg">
<path d="M12.043 8.12563H2.75C2.61739 8.12563 2.49021 8.17831 2.39645 8.27208C2.30268 8.36585 2.25 8.49302 2.25 8.62563C2.25 8.75824 2.30268 8.88542 2.39645 8.97919C2.49021 9.07295 2.61739 9.12563 2.75 9.12563H12.043L8.396 12.7716C8.30211 12.8655 8.24937 12.9929 8.24937 13.1256C8.24937 13.2584 8.30211 13.3857 8.396 13.4796C8.48989 13.5735 8.61722 13.6263 8.75 13.6263C8.88278 13.6263 9.01011 13.5735 9.104 13.4796L13.604 8.97963C13.6506 8.93319 13.6875 8.87801 13.7127 8.81726C13.7379 8.75652 13.7509 8.6914 13.7509 8.62563C13.7509 8.55986 13.7379 8.49474 13.7127 8.434C13.6875 8.37325 13.6506 8.31808 13.604 8.27163L9.104 3.77163C9.01011 3.67774 8.88278 3.625 8.75 3.625C8.61722 3.625 8.48989 3.67774 8.396 3.77163C8.30211 3.86552 8.24937 3.99286 8.24937 4.12563C8.24937 4.25841 8.30211 4.38575 8.396 4.47963L12.043 8.12563Z" fill="white"/>
</svg>
